<svg width="50" height="51" viewBox="0 0 50 51" fill="none" xmlns="http://www.w3.org/2000/svg">
<path d="M20.0695 34.1445C20.2535 34.4012 20.496 34.6105 20.777 34.7548C21.058 34.8991 21.3693 34.9744 21.6852 34.9744C22.001 34.9744 22.3124 34.8991 22.5933 34.7548C22.8743 34.6105 23.1168 34.4012 23.3008 34.1445L36.4633 15.8945C36.7008 15.5632 36.4633 15.1007 36.057 15.1007H33.1258C32.4883 15.1007 31.882 15.407 31.507 15.932L21.6883 29.557L17.2383 23.382C16.8633 22.8632 16.2633 22.5507 15.6195 22.5507H12.6883C12.282 22.5507 12.0445 23.0132 12.282 23.3445L20.0695 34.1445Z" fill="#13498C"/>
<path d="M48 0.038208H2C0.89375 0.038208 0 0.931958 0 2.03821V48.0382C0 49.1445 0.89375 50.0382 2 50.0382H48C49.1063 50.0382 50 49.1445 50 48.0382V2.03821C50 0.931958 49.1063 0.038208 48 0.038208ZM45.5 45.5382H4.5V4.53821H45.5V45.5382Z" fill="#13498C"/>
</svg>
