<svg width="50" height="46" viewBox="0 0 50 46" fill="none" xmlns="http://www.w3.org/2000/svg">
<path d="M49.2274 8.34101L37.0639 15.8354L25.4005 0.277855C25.3536 0.215239 25.2927 0.164413 25.2227 0.129406C25.1527 0.0943983 25.0756 0.0761719 24.9973 0.0761719C24.9191 0.0761719 24.8419 0.0943983 24.7719 0.129406C24.702 0.164413 24.6411 0.215239 24.5942 0.277855L12.937 15.8354L0.767242 8.34101C0.410963 8.12224 -0.0515748 8.41601 0.00467975 8.8348L4.78007 45.1252C4.84882 45.619 5.27386 46.0003 5.78015 46.0003H44.227C44.727 46.0003 45.1583 45.6253 45.2208 45.1252L49.9962 8.8348C50.0462 8.41601 49.5899 8.12224 49.2274 8.34101ZM41.3518 41.725H8.64288L5.28011 16.1354L14.0183 21.5171L25.0005 6.86589L35.9826 21.5171L44.7208 16.1354L41.3518 41.725ZM25.0005 22.8734C21.1189 22.8734 17.9624 26.0299 17.9624 29.9115C17.9624 33.7931 21.1189 36.9496 25.0005 36.9496C28.882 36.9496 32.0385 33.7931 32.0385 29.9115C32.0385 26.0299 28.882 22.8734 25.0005 22.8734ZM25.0005 32.9305C23.3378 32.9305 21.9877 31.5804 21.9877 29.9115C21.9877 28.2489 23.3378 26.8925 25.0005 26.8925C26.6631 26.8925 28.0132 28.2426 28.0132 29.9115C28.0132 31.5741 26.6631 32.9305 25.0005 32.9305Z" fill="#13498C"/>
</svg>
