<svg width="50" height="51" viewBox="0 0 50 51" fill="none" xmlns="http://www.w3.org/2000/svg">
<path d="M25 0.109375C11.1914 0.109375 0 11.3008 0 25.1094V48.5469C0 49.4128 0.696615 50.1094 1.5625 50.1094H13.5417C15.8398 50.1094 17.7083 48.2409 17.7083 45.9427V32.401C17.7083 30.1029 15.8398 28.2344 13.5417 28.2344H4.6875V25.1094C4.6875 13.8919 13.7826 4.79688 25 4.79688C36.2174 4.79688 45.3125 13.8919 45.3125 25.1094V28.2344H36.4583C34.1602 28.2344 32.2917 30.1029 32.2917 32.401V45.9427C32.2917 48.2409 34.1602 50.1094 36.4583 50.1094H48.4375C49.3034 50.1094 50 49.4128 50 48.5469V25.1094C50 11.3008 38.8086 0.109375 25 0.109375ZM13.0208 32.9219V45.4219H4.6875V32.9219H13.0208ZM45.3125 45.4219H36.9792V32.9219H45.3125V45.4219Z" fill="#13498C"/>
</svg>
