<svg width="50" height="51" viewBox="0 0 50 51" fill="none" xmlns="http://www.w3.org/2000/svg">
<path d="M48.125 10.9885V2.9823C48.125 1.87605 47.2313 0.9823 46.125 0.9823H3.87504C2.76879 0.9823 1.87504 1.87605 1.87504 2.9823V10.9885C0.831288 11.051 3.87246e-05 11.9198 3.87246e-05 12.9823V21.2135C-0.00396381 22.7263 0.302347 24.2238 0.900038 25.6135C1.16879 26.251 1.50004 26.851 1.87504 27.4198V48.9823C1.87504 50.0823 2.76879 50.9823 3.87504 50.9823H46.125C47.2313 50.9823 48.125 50.0885 48.125 48.9823V27.4198C48.5059 26.8496 48.8323 26.2448 49.1 25.6135C49.6937 24.2198 50 22.7385 50 21.2135V12.9823C50 11.9198 49.1688 11.051 48.125 10.9885ZM6.37503 5.4823H43.625V10.9823H6.37503V5.4823ZM29 46.4885H21V39.9823H29V46.4885ZM43.625 46.4885H33V37.9823C33 36.876 32.1063 35.9823 31 35.9823H19C17.8938 35.9823 17 36.876 17 37.9823V46.4885H6.37503V31.351C6.55628 31.4385 6.74378 31.526 6.93753 31.601C8.33128 32.1885 9.81253 32.4823 11.3375 32.4823C12.8625 32.4823 14.3375 32.1885 15.7375 31.601C16.6 31.2385 17.4125 30.776 18.1563 30.2198C18.1688 30.2135 18.1813 30.2135 18.1938 30.2198C18.9398 30.7784 19.7523 31.2424 20.6125 31.601C22.0063 32.1885 23.4875 32.4823 25.0125 32.4823C26.5375 32.4823 28.0125 32.1885 29.4125 31.601C30.275 31.2385 31.0875 30.776 31.8313 30.2198C31.8438 30.2135 31.8563 30.2135 31.8688 30.2198C32.6148 30.7784 33.4273 31.2424 34.2875 31.601C35.6813 32.1885 37.1625 32.4823 38.6875 32.4823C40.2125 32.4823 41.6875 32.1885 43.0875 31.601C43.275 31.5198 43.4625 31.4385 43.65 31.351V46.4885H43.625ZM45.5 21.2135C45.5 24.951 42.4375 27.9823 38.6688 27.9823C36.1188 27.9823 33.8938 26.601 32.7188 24.551C32.5375 24.2385 32.2125 24.0448 31.85 24.0448H31.8125C31.4563 24.0448 31.125 24.2385 30.9438 24.551C30.3441 25.5968 29.4783 26.4651 28.4344 27.0678C27.3904 27.6704 26.2055 27.986 25 27.9823C22.4563 27.9823 20.2375 26.6073 19.0625 24.5635C18.875 24.2448 18.5375 24.0448 18.1688 24.0448C17.8 24.0448 17.4563 24.2448 17.275 24.5635C16.6719 25.6053 15.805 26.4697 14.7616 27.0699C13.7181 27.67 12.535 27.9847 11.3313 27.9823C7.56253 27.9823 4.50004 24.951 4.50004 21.2135V15.5135C4.50004 15.4948 4.51254 15.4823 4.53129 15.4823H45.4688C45.4875 15.4823 45.5 15.4948 45.5 15.5135V21.2135Z" fill="#13498C"/>
</svg>
